<?xml version="1.0" encoding="utf-8"?>
<!-- Generator: Adobe Illustrator 19.2.1, SVG Export Plug-In . SVG Version: 6.00 Build 0)  -->
<svg version="1.1" id="Layer_1" xmlns="http://www.w3.org/2000/svg" xmlns:xlink="http://www.w3.org/1999/xlink" x="0px" y="0px"
	 viewBox="0 0 100 100" style="enable-background:new 0 0 100 100;" xml:space="preserve">
<style type="text/css">
	.st0{fill:#FFC927;}
</style>
<circle class="st0" cx="50" cy="50" r="50"/>
<g>
	<path d="M71.7,62.1c0,4.5-1.6,8-4.8,10.7s-7.7,4.3-13.5,4.9v8.6h-5.8v-8.5c-6.8-0.1-12.8-1.3-18-3.6V63.1c2.4,1.2,5.4,2.3,8.8,3.2
		c3.4,0.9,6.5,1.5,9.2,1.6v-13l-2.8-1.1c-5.6-2.2-9.5-4.6-11.8-7.1c-2.3-2.6-3.5-5.7-3.5-9.5c0-4.1,1.6-7.4,4.8-10
		c3.2-2.6,7.6-4.2,13.3-4.8v-6.4h5.8v6.3c6.4,0.3,12.2,1.6,17.4,3.9l-4,9.8c-4.4-1.8-8.9-2.9-13.5-3.3V45c5.5,2.1,9.4,3.9,11.7,5.5
		s4,3.2,5.1,5.1C71.1,57.4,71.7,59.6,71.7,62.1z M42.1,37.2c0,1.2,0.4,2.3,1.3,3c0.9,0.8,2.2,1.6,4.1,2.5v-9.9
		C43.9,33.3,42.1,34.8,42.1,37.2z M59,62.7c0-1.2-0.5-2.2-1.4-3c-1-0.8-2.4-1.7-4.3-2.5v10.5C57.1,67,59,65.4,59,62.7z"/>
</g>
</svg>
